<svg width="142" height="82" viewBox="0 0 142 82" fill="none" xmlns="http://www.w3.org/2000/svg">
<path d="M32.1074 21.4998C32.1017 21.5108 32.0939 21.5207 32.0845 21.5287C32.075 21.5368 32.064 21.5429 32.0521 21.5468C32.0402 21.5506 32.0277 21.5521 32.0153 21.5511C32.0028 21.5502 31.9907 21.5468 31.9796 21.5412C31.9685 21.5355 31.9586 21.5278 31.9504 21.5184C31.9423 21.509 31.9362 21.498 31.9323 21.4863C31.9284 21.4745 31.9269 21.4621 31.9279 21.4497C31.9289 21.4373 31.9323 21.4253 31.9379 21.4142C32.4224 19.9997 33.2735 18.8124 34.4913 17.8522C36.406 16.3464 37.6726 15.3349 38.2911 14.8178C38.2967 14.8122 38.3016 14.8054 38.3054 14.7978L38.3399 14.7237C38.3475 14.7077 38.3514 14.6901 38.3512 14.6723C38.351 14.6546 38.3468 14.637 38.3388 14.6209C38.3309 14.6048 38.3193 14.5906 38.3051 14.5793C38.2909 14.5679 38.2743 14.5598 38.2566 14.5554C36.8684 14.2322 35.1767 13.8729 33.1816 13.4774C32.8944 13.4204 32.3372 13.2093 31.51 12.8443C31.4528 12.819 31.4042 12.7778 31.3701 12.7257C31.3359 12.6735 31.3177 12.6127 31.3176 12.5505V11.1303C31.3175 11.0688 31.3339 11.0083 31.3652 10.9548C31.3964 10.9012 31.4414 10.8565 31.4956 10.8251C32.3994 10.2966 33.5377 10.0361 34.9106 10.0437C36.4692 10.0513 37.9454 10.1606 39.3394 10.3717C39.3903 10.3789 39.4374 10.4027 39.4733 10.4394C39.5091 10.476 39.5317 10.5234 39.5376 10.5742L39.7989 12.87C39.8018 12.8969 39.8119 12.9226 39.8282 12.9444C39.8445 12.9662 39.8664 12.9833 39.8918 12.994C39.9171 13.0047 39.945 13.0086 39.9725 13.0054C40.0001 13.0021 40.0264 12.9918 40.0488 12.9755C40.4662 12.6732 40.921 12.2226 41.4131 11.6237C43.2206 9.422 45.4771 6.92659 48.1826 4.13743C49.5938 2.68296 51.2663 1.77796 53.2002 1.42242C56.3174 0.850143 59.134 0.473694 61.65 0.293074C66.7279 -0.070068 72.3295 -0.0957406 78.4547 0.216067C81.8898 0.392885 86.0371 0.87771 89.6531 1.80458C90.7158 2.07551 91.6636 2.80845 92.5539 3.72106C95.0871 6.31438 96.5912 7.88578 97.066 8.43525C98.6514 10.27 99.8472 11.5961 100.653 12.4136C100.847 12.6095 101.048 12.773 101.256 12.9042C101.277 12.9164 101.3 12.9235 101.323 12.9249C101.347 12.9262 101.37 12.9216 101.392 12.9117C101.413 12.9017 101.431 12.8867 101.444 12.8679C101.458 12.8491 101.466 12.8273 101.469 12.8044L101.722 10.5884C101.73 10.5177 101.762 10.4518 101.812 10.4012C101.862 10.3505 101.927 10.3181 101.997 10.3089C104.104 10.02 106.109 9.94391 108.015 10.0808C108.386 10.1093 109.022 10.3213 109.922 10.7168C109.968 10.7372 110.008 10.7707 110.036 10.8133C110.064 10.8558 110.079 10.9055 110.08 10.9563V12.6675C110.08 12.7191 110.064 12.7698 110.036 12.8133C110.007 12.8568 109.967 12.8913 109.919 12.9127C109.233 13.2093 108.409 13.4574 107.446 13.6571C106.305 13.8947 104.795 14.216 102.917 14.621C102.885 14.6281 102.856 14.6441 102.833 14.6671C102.81 14.6901 102.795 14.7191 102.788 14.7506C102.782 14.7821 102.784 14.8149 102.796 14.845C102.807 14.8751 102.827 14.9013 102.853 14.9205C103.792 15.6106 105.119 16.625 106.837 17.9634C107.984 18.857 108.792 20.0035 109.261 21.4028C109.27 21.4265 109.269 21.4526 109.26 21.4761C109.251 21.4996 109.233 21.5188 109.21 21.5301C109.187 21.5414 109.161 21.544 109.137 21.5373C109.112 21.5307 109.091 21.5153 109.077 21.4941C108.394 20.5283 107.529 19.7535 106.484 19.1698C104.979 18.3275 103.543 17.4653 102.176 16.5831C101.446 16.1154 100.958 15.7618 100.401 15.0602C97.5112 11.4231 94.5989 8.02838 91.6636 4.87608C91.1294 4.3019 90.5138 3.88076 89.8168 3.61268C89.6968 3.5654 89.5701 3.53562 89.4406 3.52427C86.107 3.21247 83.7308 3.0347 82.312 2.99097C72.5554 2.67726 62.7414 2.58314 52.8728 3.4159C50.9944 3.57275 50.1385 4.14029 48.8576 5.54912C45.9414 8.75466 43.1823 12.0562 40.5801 15.4538C40.3298 15.7833 40.0165 16.0605 39.6582 16.2694C37.5587 17.5014 35.8756 18.4083 34.2758 19.4835C33.3434 20.1128 32.6205 20.7849 32.1074 21.4998Z" fill="#1C1D1F"/>
<path d="M70.5851 4.89038C76.9066 4.89038 82.737 4.96738 87.8953 5.52065C88.8087 5.61761 90.0121 5.7431 90.7301 6.59582C93.5046 9.88691 95.5486 12.4203 96.8621 14.1961C97.0976 14.5136 97.3159 14.8378 97.5169 15.1686C97.5375 15.2028 97.5495 15.2414 97.5519 15.2811C97.5542 15.3209 97.5469 15.3606 97.5306 15.397C97.5143 15.4333 97.4894 15.4652 97.458 15.49C97.4266 15.5148 97.3897 15.5317 97.3503 15.5394C93.9861 16.1782 90.2782 16.779 86.2266 17.3418C84.7351 17.549 83.2205 17.6469 81.683 17.6355C80.9458 17.6298 77.2484 17.6279 70.5908 17.6298C63.9333 17.6336 60.2359 17.6384 59.4987 17.6441C57.9612 17.6555 56.4466 17.5585 54.955 17.3532C50.9015 16.7942 47.1927 16.1963 43.8285 15.5593C43.7891 15.5517 43.7522 15.5348 43.7208 15.51C43.6895 15.4852 43.6645 15.4533 43.6482 15.4169C43.6319 15.3806 43.6246 15.3408 43.627 15.3011C43.6293 15.2614 43.6413 15.2228 43.6619 15.1886C43.8629 14.8578 44.0812 14.5336 44.3167 14.2161C45.6283 12.4384 47.6704 9.90307 50.443 6.61008C51.161 5.75736 52.3615 5.63187 53.2749 5.53206C58.436 4.97879 64.2636 4.89323 70.5851 4.89038Z" fill="#1C1D1F"/>
<path d="M55.0326 26.6076C55.0464 26.6261 55.0542 26.6484 55.055 26.6714C55.0558 26.6944 55.0496 26.7171 55.0372 26.7366C55.0247 26.756 55.0067 26.7712 54.9854 26.7803C54.964 26.7894 54.9404 26.7918 54.9177 26.7873L44.064 24.7425C43.9424 24.7193 43.8273 24.6703 43.7266 24.5989C43.626 24.5275 43.5422 24.4354 43.4809 24.3289L40.5887 19.3581C40.5699 19.3253 40.56 19.2883 40.5598 19.2505C40.5596 19.2128 40.5693 19.1757 40.5877 19.1428C40.6062 19.1098 40.6329 19.0821 40.6653 19.0624C40.6976 19.0427 40.7346 19.0315 40.7725 19.0301C40.8759 19.0282 41.0607 19.0615 41.3268 19.1299C45.9739 20.3201 49.2261 21.2223 51.0834 21.8364C51.4607 21.9606 51.789 22.1979 52.0226 22.5151L55.0326 26.6076Z" fill="#1C1D1F"/>
<path d="M86.198 26.5334L89.1792 22.5208C89.4097 22.2097 89.7329 21.9775 90.104 21.8563C91.9345 21.2612 95.1379 20.3885 99.7141 19.2383C99.9765 19.1717 100.158 19.1394 100.26 19.1413C100.298 19.1418 100.335 19.1523 100.368 19.1717C100.4 19.1911 100.427 19.2187 100.445 19.2517C100.464 19.2847 100.473 19.322 100.472 19.3597C100.471 19.3974 100.461 19.4342 100.441 19.4664L97.5715 24.3432C97.5107 24.4472 97.4279 24.537 97.3287 24.6064C97.2296 24.6758 97.1165 24.7232 96.9971 24.7453L86.31 26.7103C86.2874 26.7138 86.2642 26.7107 86.2434 26.7014C86.2225 26.692 86.2049 26.6769 86.1929 26.6579C86.1809 26.6389 86.1749 26.6169 86.1758 26.5947C86.1767 26.5725 86.1844 26.5512 86.198 26.5334Z" fill="#1C1D1F"/>
<path d="M35.4103 22.7205C35.4312 22.7016 35.4561 22.6877 35.4833 22.68C35.5104 22.6722 35.5389 22.6708 35.5667 22.6757C35.5945 22.6807 35.6207 22.692 35.6434 22.7086C35.6661 22.7253 35.6846 22.7469 35.6975 22.7718C36.45 24.2548 37.0321 25.3936 37.4438 26.1884C38.0268 27.3092 40.8042 28.025 42.4815 28.5383C45.8725 29.5764 49.2089 30.5698 52.4908 31.5186C52.5229 31.5278 52.5523 31.5443 52.577 31.5666C52.6017 31.5889 52.6208 31.6166 52.633 31.6474C52.6452 31.6783 52.6502 31.7115 52.6474 31.7445C52.6447 31.7776 52.6343 31.8095 52.6172 31.838C52.5291 31.9863 52.4066 32.1146 52.2495 32.223C50.6546 33.3181 48.1271 34.9152 44.6672 37.0142C44.4283 37.1587 44.1495 37.2237 43.8716 37.1996C41.6562 37.0151 39.4236 36.6824 37.1738 36.2014C36.1801 35.9903 35.666 35.3715 35.6315 34.3448C35.5377 31.7134 35.4324 27.8824 35.3156 22.8516C35.3156 22.8382 35.3184 22.825 35.3238 22.8127C35.3293 22.8004 35.3372 22.7894 35.3471 22.7804L35.4103 22.7205Z" fill="#1C1D1F"/>
<path d="M105.8 22.8259L105.86 22.8858C105.87 22.8947 105.878 22.9056 105.884 22.9179C105.889 22.9302 105.892 22.9435 105.892 22.9571C105.766 27.9574 105.654 31.7657 105.556 34.3818C105.52 35.4028 105.007 36.0169 104.019 36.2241C101.781 36.6976 99.561 37.0236 97.359 37.2023C97.0827 37.2257 96.806 37.1608 96.5692 37.017C93.1341 34.9237 90.6248 33.3314 89.0413 32.24C88.8843 32.1317 88.7627 32.0033 88.6766 31.855C88.6598 31.8264 88.6498 31.7944 88.6473 31.7615C88.6448 31.7285 88.6498 31.6955 88.662 31.665C88.6742 31.6344 88.6932 31.6071 88.7177 31.5852C88.7421 31.5633 88.7713 31.5473 88.803 31.5385C92.0676 30.6012 95.3859 29.6201 98.7577 28.5953C100.426 28.0877 103.189 27.3833 103.77 26.271C104.181 25.482 104.762 24.3507 105.513 22.8773C105.525 22.8519 105.544 22.8298 105.566 22.8128C105.589 22.7958 105.615 22.7843 105.643 22.7793C105.671 22.7743 105.7 22.7759 105.727 22.784C105.755 22.7921 105.78 22.8065 105.8 22.8259Z" fill="#1C1D1F"/>
<path d="M70.634 29.6163C71.9743 29.6163 73.0609 28.5374 73.0609 27.2065C73.0609 25.8756 71.9743 24.7966 70.634 24.7966C69.2936 24.7966 68.207 25.8756 68.207 27.2065C68.207 28.5374 69.2936 29.6163 70.634 29.6163Z" fill="#1C1D1F"/>
<path d="M36.608 45.7353C35.3701 45.5043 34.0547 45.4929 32.8139 45.1336C32.1275 44.9311 31.9379 44.5803 31.9293 43.8331C31.891 40.2454 31.8307 36.8659 31.7484 33.6946C31.7407 33.4265 31.7541 30.9396 31.7886 26.234C31.7886 26.2068 31.7995 26.1807 31.8189 26.1614C31.8383 26.1422 31.8646 26.1313 31.892 26.1313H31.9868C31.9906 26.1313 31.9942 26.1326 31.9969 26.1347C31.9996 26.1368 32.0011 26.1397 32.0011 26.1427C32.3017 28.9243 32.6024 31.4901 32.903 33.84C33.0657 35.1234 33.2783 36.1729 33.5406 36.9885C33.8814 38.0513 34.655 38.6892 35.8613 38.9022C39.4054 39.5277 42.0114 39.906 43.6792 40.0372C44.3685 40.0923 44.9716 39.9783 45.4886 39.695C48.9122 37.8184 52.0456 35.5968 55.4548 33.2012C55.6529 33.062 55.8897 32.9873 56.1327 32.9873H85.1554C85.4018 32.9872 85.6411 33.0641 85.8389 33.2069C89.2319 35.65 92.5626 37.8508 95.831 39.8091C96.191 40.0258 96.6869 40.1076 97.3188 40.0543C98.8621 39.9269 101.119 39.6332 104.088 39.1731C105.26 38.9925 105.975 38.8423 106.234 38.7225C107.584 38.1036 108.069 36.4239 108.244 35.0521C108.56 32.5957 108.849 29.7048 109.112 26.3795C109.114 26.3515 109.127 26.3253 109.147 26.3063C109.168 26.2872 109.195 26.2767 109.224 26.2768H109.229C109.258 26.2775 109.286 26.289 109.307 26.3091C109.328 26.3292 109.34 26.3564 109.341 26.3852C109.46 28.5051 109.504 30.6088 109.474 32.6964C109.414 36.9134 109.378 40.599 109.364 43.7532C109.361 44.394 109.206 44.7875 108.902 44.9339C108.691 45.0347 108.268 45.1516 107.633 45.2847C106.555 45.5091 105.402 45.6421 104.175 45.684C104.161 45.6847 104.149 45.6901 104.14 45.6991C104.131 45.7082 104.126 45.7201 104.126 45.7325V45.7353C104.126 45.7492 104.131 45.7626 104.141 45.7727C104.15 45.7827 104.163 45.7888 104.177 45.7895C105.343 45.8522 106.682 45.8294 107.957 46.0005C111.227 46.4359 113.38 46.7506 114.414 46.9445C114.887 47.032 115.306 47.1594 115.672 47.3267C115.729 47.3532 115.777 47.3971 115.808 47.452C115.838 47.507 115.851 47.5702 115.844 47.6327C115.837 47.6952 115.81 47.7538 115.767 47.8003C115.724 47.8467 115.668 47.8786 115.606 47.8914C112.837 48.4389 109.87 48.8296 106.705 49.0635C101.575 49.4437 96.2925 49.6985 90.8565 49.8278C77.819 50.1377 65.2363 50.1662 53.1083 49.9133C44.8424 49.7394 36.7315 49.4314 28.4139 48.3648C27.4163 48.2355 26.5891 48.0349 25.9324 47.763C25.8443 47.7269 25.784 47.6898 25.7514 47.6518C25.7253 47.6217 25.7072 47.5856 25.6988 47.5467C25.6904 47.5079 25.6921 47.4676 25.7035 47.4295C25.7149 47.3914 25.7359 47.3568 25.7643 47.3289C25.7928 47.3009 25.8278 47.2806 25.8663 47.2696C26.9788 46.9559 28.0769 46.7249 29.1606 46.5766C31.9906 46.185 34.4712 45.9216 36.6023 45.7866C36.6091 45.7874 36.616 45.7854 36.6214 45.7811C36.6268 45.7769 36.6302 45.7706 36.631 45.7638C36.6317 45.757 36.6298 45.7502 36.6254 45.7448C36.6211 45.7395 36.6149 45.7361 36.608 45.7353Z" fill="#1C1D1F"/>
<path d="M3.17656 81.9601H0.0890349C0.0654212 81.9601 0.0427733 81.9508 0.0260759 81.9342C0.00937847 81.9176 0 81.8951 0 81.8717V64.3296C0 64.3062 0.00937847 64.2837 0.0260759 64.2671C0.0427733 64.2505 0.0654212 64.2412 0.0890349 64.2412H3.16794C3.18035 64.2411 3.19263 64.2436 3.204 64.2485C3.21538 64.2535 3.2256 64.2607 3.234 64.2697L14.9953 76.8552C15.0074 76.8685 15.0233 76.8778 15.0409 76.8819C15.0584 76.8861 15.0768 76.8848 15.0936 76.8783C15.1105 76.8718 15.1249 76.8604 15.135 76.8456C15.1452 76.8307 15.1505 76.8132 15.1504 76.7953V64.3924C15.1504 64.3689 15.1598 64.3464 15.1765 64.3298C15.1932 64.3133 15.2158 64.304 15.2394 64.304H18.281C18.3046 64.304 18.3273 64.3133 18.344 64.3298C18.3607 64.3464 18.37 64.3689 18.37 64.3924V81.8545C18.37 81.878 18.3607 81.9005 18.344 81.9171C18.3273 81.9337 18.3046 81.943 18.281 81.943H15.3543C15.3419 81.943 15.3296 81.9405 15.3183 81.9356C15.3069 81.9307 15.2967 81.9235 15.2883 81.9144L3.42069 69.2149C3.40859 69.2016 3.39271 69.1923 3.37515 69.1882C3.35759 69.184 3.33918 69.1853 3.32236 69.1918C3.30554 69.1983 3.29111 69.2097 3.28097 69.2245C3.27083 69.2394 3.26547 69.2569 3.26559 69.2748V81.8717C3.26559 81.8951 3.25622 81.9176 3.23952 81.9342C3.22282 81.9508 3.20017 81.9601 3.17656 81.9601Z" fill="#1C1D1F"/>
<path d="M31.3721 64.2412H34.2672C34.3089 64.2412 34.3498 64.2523 34.3857 64.2734C34.4215 64.2945 34.451 64.3247 34.4711 64.361L43.8658 81.6293C43.8853 81.6644 43.8952 81.704 43.8945 81.7442C43.8939 81.7843 43.8827 81.8236 43.8621 81.8581C43.8415 81.8926 43.8123 81.9213 43.7771 81.9411C43.742 81.961 43.7023 81.9715 43.6619 81.9715H40.4394C40.3974 81.9712 40.3563 81.9597 40.3204 81.9381C40.2845 81.9165 40.2551 81.8856 40.2355 81.8488L38.3485 78.3809C38.3288 78.3441 38.2994 78.3133 38.2635 78.2917C38.2276 78.2701 38.1865 78.2586 38.1446 78.2583H27.3397C27.298 78.2583 27.2571 78.2694 27.2212 78.2905C27.1853 78.3116 27.1558 78.3418 27.1357 78.3781L25.243 81.8574C25.2229 81.8937 25.1934 81.9239 25.1576 81.945C25.1217 81.9661 25.0808 81.9772 25.0391 81.9772H21.9745C21.9341 81.9772 21.8944 81.9667 21.8593 81.9469C21.8242 81.927 21.7949 81.8984 21.7743 81.8638C21.7537 81.8293 21.7426 81.79 21.7419 81.7499C21.7413 81.7097 21.7512 81.6701 21.7706 81.6349L31.1682 64.361C31.1882 64.3247 31.2178 64.2945 31.2536 64.2734C31.2895 64.2523 31.3304 64.2412 31.3721 64.2412Z" fill="#1C1D1F"/>
<path d="M108.658 64.2126C109.161 64.2126 109.612 64.2155 110.011 64.2212C110.099 64.2226 110.185 64.2474 110.26 64.293C110.335 64.3387 110.397 64.4034 110.439 64.4807L119.759 81.6121C119.778 81.6463 119.787 81.6849 119.787 81.7239C119.786 81.763 119.775 81.8013 119.755 81.8349C119.735 81.8686 119.707 81.8965 119.673 81.9159C119.638 81.9353 119.6 81.9456 119.56 81.9458H116.453C116.394 81.9459 116.336 81.93 116.285 81.8998C116.235 81.8697 116.193 81.8264 116.166 81.7747L114.336 78.4151C114.309 78.3641 114.269 78.3215 114.219 78.2918C114.169 78.2621 114.113 78.2466 114.055 78.2468C113.754 78.2468 111.96 78.2487 108.672 78.2525C105.387 78.2563 103.592 78.2583 103.29 78.2583C103.232 78.2585 103.176 78.2743 103.127 78.3039C103.078 78.3336 103.038 78.376 103.011 78.4265L101.188 81.7918C101.16 81.8435 101.118 81.8868 101.068 81.917C101.017 81.9471 100.959 81.963 100.9 81.9629L97.7927 81.9686C97.7533 81.9684 97.7147 81.9582 97.6806 81.9387C97.6464 81.9193 97.618 81.8914 97.598 81.8577C97.578 81.8241 97.5672 81.7858 97.5666 81.7468C97.5659 81.7077 97.5756 81.6691 97.5945 81.6349L106.877 64.4836C106.919 64.4063 106.981 64.3415 107.056 64.2959C107.131 64.2503 107.217 64.2255 107.305 64.224C107.703 64.2164 108.154 64.2126 108.658 64.2126Z" fill="#1C1D1F"/>
<path d="M53.6884 77.9333C53.7248 77.9333 53.7516 77.9181 53.7689 77.8876C54.3797 76.8838 54.9024 75.9712 55.337 75.1498C57.3992 71.2484 59.3274 67.7025 61.1215 64.5122C61.1545 64.4541 61.2023 64.4058 61.2598 64.3723C61.3173 64.3387 61.3826 64.321 61.4489 64.3211H64.4531C64.5012 64.3213 64.5485 64.3339 64.5902 64.3576C64.632 64.3813 64.6669 64.4154 64.6915 64.4564C64.7161 64.4975 64.7295 64.5442 64.7305 64.5919C64.7315 64.6397 64.7201 64.6869 64.6973 64.729L55.4577 81.6578C55.4072 81.7496 55.3349 81.8275 55.2472 81.8847C55.1595 81.9419 55.0592 81.9767 54.955 81.9858C54.9512 81.9877 54.5242 81.9868 53.6741 81.983C52.8259 81.9792 52.3998 81.9773 52.396 81.9773C52.2913 81.9675 52.1906 81.932 52.1029 81.8737C52.0152 81.8155 51.9432 81.7364 51.8934 81.6436L42.7773 64.6491C42.755 64.6069 42.7441 64.5598 42.7456 64.5122C42.7471 64.4646 42.7609 64.4182 42.7858 64.3775C42.8106 64.3368 42.8456 64.3031 42.8874 64.2797C42.9292 64.2564 42.9763 64.2441 43.0243 64.2441L46.0285 64.267C46.0948 64.2668 46.1601 64.2845 46.2176 64.3181C46.2751 64.3516 46.3229 64.3999 46.3559 64.458C48.1271 67.6617 50.0294 71.2218 52.0628 75.1384C52.4917 75.9616 53.0078 76.8781 53.6109 77.8876C53.6281 77.9181 53.654 77.9333 53.6884 77.9333Z" fill="#1C1D1F"/>
<path d="M71.2038 64.3263L68.5557 64.3217C68.3844 64.3214 68.2452 64.4591 68.2449 64.6292L68.215 81.6436C68.2147 81.8137 68.3534 81.9518 68.5247 81.9521L71.1728 81.9567C71.3441 81.957 71.4832 81.8194 71.4835 81.6492L71.5134 64.6348C71.5137 64.4647 71.3751 64.3266 71.2038 64.3263Z" fill="#1C1D1F"/>
<path d="M79.9051 73.1221C79.908 75.4065 79.5576 77.2687 81.2005 78.3696C81.5796 78.6224 82.5322 78.7479 84.0582 78.746C89.5612 78.7308 92.9828 78.7204 94.3232 78.7147C94.3696 78.7147 94.4142 78.733 94.447 78.7656C94.4799 78.7982 94.4983 78.8425 94.4983 78.8886V81.7519C94.4984 81.7765 94.4934 81.8008 94.4839 81.8235C94.4743 81.8462 94.4603 81.8668 94.4427 81.884C94.425 81.9013 94.4041 81.9149 94.3811 81.924C94.3581 81.9332 94.3336 81.9377 94.3088 81.9373C92.5128 81.9297 89.3094 81.9316 84.6987 81.943C82.9256 81.9468 81.817 81.9021 81.3728 81.809C78.8482 81.2842 76.9871 79.3193 76.7429 76.7611C76.6912 76.2249 76.6644 75.0129 76.6625 73.1249C76.6606 71.237 76.6855 70.0249 76.7372 69.4888C76.9727 66.9306 78.831 64.9599 81.3555 64.4295C81.7979 64.3363 82.9055 64.2898 84.6786 64.2898C89.2893 64.2917 92.4927 64.2869 94.2887 64.2755C94.3137 64.2747 94.3386 64.279 94.3619 64.2879C94.3852 64.2969 94.4065 64.3104 94.4244 64.3277C94.4424 64.345 94.4566 64.3657 94.4664 64.3886C94.4761 64.4114 94.4811 64.436 94.4811 64.4609L94.4869 67.3242C94.4869 67.3703 94.4684 67.4145 94.4356 67.4472C94.4027 67.4798 94.3581 67.4981 94.3117 67.4981C92.9714 67.4943 89.5497 67.4905 84.0467 67.4867C82.5207 67.4886 81.5681 67.617 81.189 67.8717C79.549 68.9754 79.9023 70.8349 79.9051 73.1221Z" fill="#1C1D1F"/>
<path d="M136.434 75.7287L141.937 81.615C141.968 81.6474 141.989 81.688 141.996 81.7319C142.004 81.7757 141.999 81.821 141.981 81.8619C141.964 81.9029 141.934 81.9378 141.897 81.9623C141.859 81.9868 141.815 81.9999 141.771 82H138.281C138.202 82 138.124 81.984 138.052 81.9531C137.98 81.9222 137.915 81.877 137.862 81.8203L132.204 75.7686C132.173 75.7345 132.135 75.7072 132.093 75.6885C132.051 75.6699 132.005 75.6602 131.959 75.6602H126.517C126.467 75.6602 126.42 75.6801 126.385 75.7154C126.35 75.7507 126.33 75.7985 126.33 75.8484V81.7804C126.33 81.8318 126.309 81.8812 126.273 81.9175C126.236 81.9539 126.187 81.9743 126.135 81.9743H123.326C123.263 81.9743 123.202 81.9494 123.157 81.905C123.113 81.8606 123.087 81.8004 123.087 81.7376V64.5321C123.087 64.5027 123.093 64.4735 123.105 64.4463C123.117 64.4191 123.133 64.3945 123.155 64.3738C123.176 64.3531 123.202 64.3368 123.229 64.3258C123.257 64.3148 123.287 64.3093 123.317 64.3097C124.108 64.3173 127.843 64.3087 134.521 64.284C136.294 64.2764 137.514 64.4095 138.18 64.6833C139.366 65.1719 140.234 66.0103 140.785 67.1986C141.242 68.1768 141.176 69.5914 141.127 70.7778C141.047 72.7912 140.086 74.2675 138.244 75.2068C137.709 75.4787 137.129 75.6022 136.503 75.5775C136.485 75.5765 136.468 75.5808 136.453 75.5899C136.438 75.599 136.426 75.6125 136.418 75.6286C136.411 75.6448 136.409 75.6629 136.411 75.6808C136.414 75.6986 136.422 75.7152 136.434 75.7287Z" fill="#1C1D1F"/>
<path d="M70.6483 41.9907C80.8328 41.9907 86.4679 41.9878 87.5536 41.9821C88.4688 41.9783 89.4032 42.0078 90.3568 42.0705C90.5914 42.0854 90.8148 42.1777 90.9915 42.3329C91.744 42.9889 92.4295 43.4727 93.0479 43.7845C93.3581 43.9404 93.9814 44.0108 94.9177 43.9956C95.0118 43.9939 95.1046 44.0174 95.1865 44.0636C95.2683 44.1097 95.3362 44.1769 95.383 44.2579L95.7563 44.8996C95.7694 44.9226 95.7761 44.9485 95.7759 44.9749C95.7757 45.0012 95.7686 45.0271 95.7552 45.0498C95.7419 45.0726 95.7228 45.0915 95.6998 45.1047C95.6768 45.1179 95.6507 45.1248 95.6242 45.1249C94.4677 45.1325 93.7401 45.1325 93.4414 45.1249C85.3669 44.9234 77.7692 44.8236 70.6483 44.8255C63.5274 44.8255 55.9287 44.9272 47.8523 45.1306C47.5555 45.1382 46.8289 45.1382 45.6724 45.1306C45.6458 45.1305 45.6198 45.1236 45.5968 45.1104C45.5738 45.0972 45.5547 45.0783 45.5414 45.0555C45.528 45.0328 45.5209 45.0069 45.5207 44.9806C45.5205 44.9542 45.5272 44.9283 45.5403 44.9053L45.9136 44.2637C45.9602 44.183 46.0276 44.1161 46.1089 44.07C46.1902 44.0239 46.2824 44.0002 46.3761 44.0013C47.3124 44.0165 47.9356 43.9462 48.2458 43.7902C48.8643 43.4784 49.5497 42.9936 50.3022 42.3358C50.479 42.1805 50.7023 42.0882 50.937 42.0734C51.8905 42.0107 52.8249 41.9821 53.7402 41.9878C54.8258 41.9916 60.4619 41.9926 70.6483 41.9907Z" fill="white"/>
<path d="M126.341 67.7548C126.341 67.722 126.347 67.6894 126.36 67.659C126.372 67.6285 126.39 67.6009 126.414 67.5775C126.437 67.5542 126.465 67.5356 126.495 67.523C126.526 67.5103 126.558 67.5038 126.591 67.5038L135.636 67.4411C135.93 67.4391 136.222 67.4922 136.494 67.5974C136.767 67.7025 137.015 67.8576 137.224 68.0539C137.434 68.2501 137.6 68.4836 137.714 68.7411C137.829 68.9985 137.888 69.2749 137.89 69.5543L137.896 70.3814C137.9 70.9455 137.667 71.4881 137.25 71.8897C136.832 72.2914 136.264 72.5192 135.67 72.5232L126.626 72.5859C126.56 72.5859 126.497 72.5602 126.45 72.5143C126.403 72.4683 126.377 72.406 126.376 72.3407L126.341 67.7548Z" fill="white"/>
<path d="M28.9078 75.1926L32.6732 68.0828C32.6813 68.0679 32.6933 68.0555 32.708 68.0468C32.7227 68.0381 32.7394 68.0336 32.7565 68.0336C32.7735 68.0336 32.7903 68.0381 32.8049 68.0468C32.8196 68.0555 32.8316 68.0679 32.8397 68.0828L36.6568 75.1669C36.6641 75.1812 36.6677 75.197 36.6671 75.2131C36.6665 75.2291 36.6618 75.2446 36.6535 75.2583C36.6452 75.272 36.6334 75.2834 36.6194 75.2914C36.6054 75.2993 36.5896 75.3036 36.5735 75.3038L28.9911 75.3323C28.9746 75.3324 28.9583 75.3281 28.9439 75.32C28.9296 75.3119 28.9176 75.3002 28.9092 75.2861C28.9007 75.272 28.8962 75.2559 28.8959 75.2395C28.8957 75.2231 28.8998 75.2069 28.9078 75.1926Z" fill="white"/>
<path d="M108.638 68.1284C108.737 68.1265 108.807 68.1626 108.847 68.2367C110.031 70.408 111.286 72.7228 112.613 75.1811C112.62 75.195 112.624 75.2105 112.623 75.2262C112.623 75.2418 112.619 75.2571 112.611 75.2706C112.602 75.2841 112.591 75.2953 112.577 75.3031C112.564 75.3109 112.548 75.315 112.532 75.3152C110.713 75.2923 109.422 75.2819 108.658 75.2838C107.894 75.2857 106.602 75.3028 104.783 75.3351C104.768 75.335 104.752 75.3308 104.738 75.323C104.725 75.3152 104.713 75.304 104.705 75.2906C104.697 75.2771 104.693 75.2618 104.692 75.2461C104.692 75.2304 104.696 75.2149 104.703 75.2011C106.016 72.737 107.258 70.4156 108.428 68.2367C108.468 68.1645 108.538 68.1284 108.638 68.1284Z" fill="white"/>
</svg>
