<svg width="144" height="84" viewBox="0 0 144 84" fill="none" xmlns="http://www.w3.org/2000/svg">
<path d="M32.5596 22.0242C32.5539 22.0355 32.546 22.0456 32.5363 22.0538C32.5267 22.0621 32.5156 22.0684 32.5035 22.0723C32.4915 22.0762 32.4788 22.0777 32.4662 22.0768C32.4536 22.0758 32.4413 22.0723 32.43 22.0665C32.4187 22.0608 32.4087 22.0529 32.4004 22.0432C32.3922 22.0336 32.3859 22.0224 32.382 22.0103C32.3781 21.9982 32.3766 21.9855 32.3776 21.9729C32.3786 21.9602 32.382 21.9479 32.3877 21.9365C32.879 20.4875 33.7421 19.2712 34.977 18.2876C36.9187 16.7451 38.2032 15.709 38.8304 15.1792C38.8361 15.1734 38.841 15.1665 38.8449 15.1588L38.8799 15.0828C38.8876 15.0664 38.8915 15.0484 38.8913 15.0302C38.8912 15.012 38.8869 14.994 38.8788 14.9775C38.8707 14.961 38.859 14.9465 38.8446 14.9349C38.8302 14.9233 38.8134 14.9149 38.7954 14.9104C37.3877 14.5793 35.6722 14.2112 33.6489 13.8061C33.3576 13.7477 32.7926 13.5315 31.9538 13.1576C31.8958 13.1316 31.8465 13.0894 31.8119 13.036C31.7772 12.9826 31.7588 12.9203 31.7586 12.8566V11.4018C31.7586 11.3388 31.7752 11.2768 31.8069 11.2219C31.8386 11.1671 31.8842 11.1213 31.9392 11.0892C32.8557 10.5477 34.0101 10.2809 35.4023 10.2887C36.9828 10.2965 38.4799 10.4085 39.8934 10.6247C39.9451 10.6321 39.9928 10.6565 40.0292 10.694C40.0656 10.7315 40.0885 10.7801 40.0944 10.8321L40.3595 13.1839C40.3624 13.2115 40.3726 13.2378 40.3891 13.2601C40.4056 13.2824 40.4279 13.3 40.4536 13.3109C40.4793 13.3219 40.5076 13.3259 40.5355 13.3226C40.5635 13.3192 40.5902 13.3087 40.6128 13.2919C41.0361 12.9823 41.4973 12.5207 41.9963 11.9072C43.8293 9.6518 46.1176 7.09553 48.8612 4.23834C50.2923 2.7484 51.9884 1.82133 53.9495 1.45712C57.1106 0.870878 59.9669 0.485248 62.5183 0.300222C67.6677 -0.0717769 73.3482 -0.0980757 79.5597 0.221337C83.0431 0.402467 87.2489 0.899118 90.9158 1.84859C91.9935 2.12613 92.9546 2.87695 93.8575 3.81181C96.4264 6.46839 97.9516 8.07812 98.4331 8.64098C100.041 10.5205 101.253 11.8789 102.071 12.7164C102.267 12.917 102.471 13.0845 102.683 13.2189C102.703 13.2315 102.726 13.2388 102.75 13.2401C102.774 13.2414 102.798 13.2368 102.82 13.2266C102.841 13.2164 102.86 13.201 102.873 13.1818C102.887 13.1625 102.896 13.1402 102.898 13.1167L103.154 10.8467C103.163 10.7743 103.195 10.7067 103.246 10.6549C103.296 10.603 103.363 10.5697 103.434 10.5604C105.57 10.2643 107.604 10.1864 109.536 10.3267C109.913 10.3559 110.557 10.573 111.47 10.9781C111.517 10.9991 111.558 11.0334 111.586 11.077C111.615 11.1206 111.63 11.1715 111.63 11.2236V12.9764C111.63 13.0294 111.615 13.0812 111.586 13.1258C111.557 13.1704 111.515 13.2058 111.467 13.2277C110.772 13.5315 109.936 13.7857 108.959 13.9902C107.802 14.2336 106.271 14.5628 104.366 14.9776C104.334 14.9849 104.305 15.0013 104.282 15.0249C104.258 15.0484 104.243 15.0781 104.236 15.1104C104.229 15.1427 104.232 15.1763 104.243 15.2071C104.255 15.238 104.275 15.2648 104.302 15.2844C105.253 15.9914 106.6 17.0304 108.342 18.4016C109.505 19.317 110.324 20.4914 110.8 21.9249C110.809 21.9491 110.808 21.9759 110.799 21.9999C110.789 22.024 110.771 22.0436 110.748 22.0552C110.725 22.0668 110.699 22.0694 110.674 22.0626C110.649 22.0558 110.628 22.0401 110.614 22.0183C109.92 21.0289 109.044 20.2353 107.983 19.6374C106.457 18.7746 105.001 17.8913 103.615 16.9876C102.875 16.5085 102.38 16.1462 101.815 15.4275C98.8846 11.7017 95.9312 8.22419 92.9546 4.99501C92.4129 4.40682 91.7886 3.97541 91.0818 3.7008C90.9602 3.65236 90.8316 3.62186 90.7003 3.61023C87.3198 3.29082 84.9101 3.10872 83.4713 3.06392C73.5773 2.74256 63.625 2.64615 53.6175 3.49921C51.7126 3.65989 50.8447 4.24127 49.5457 5.68447C46.5885 8.96819 43.7905 12.3503 41.1517 15.8307C40.8978 16.1683 40.5801 16.4522 40.2167 16.6662C38.0876 17.9283 36.3809 18.8573 34.7586 19.9587C33.813 20.6034 33.08 21.2919 32.5596 22.0242Z" fill="white"/>
<path d="M71.5793 5.00961C77.9898 5.00961 83.9024 5.08849 89.1333 5.65525C90.0595 5.75458 91.2799 5.88313 92.008 6.75665C94.8216 10.128 96.8943 12.7232 98.2264 14.5423C98.4652 14.8676 98.6865 15.1997 98.8904 15.5386C98.9113 15.5736 98.9234 15.6131 98.9258 15.6538C98.9283 15.6945 98.9209 15.7352 98.9043 15.7725C98.8877 15.8097 98.8625 15.8424 98.8307 15.8678C98.7988 15.8932 98.7614 15.9105 98.7215 15.9183C95.3099 16.5727 91.5498 17.1882 87.4411 17.7647C85.9285 17.977 84.3926 18.0773 82.8334 18.0656C82.0859 18.0598 78.3364 18.0578 71.5851 18.0598C64.8338 18.0637 61.0843 18.0685 60.3368 18.0744C58.7776 18.0861 57.2417 17.9867 55.7291 17.7764C51.6185 17.2038 47.8574 16.5912 44.4458 15.9388C44.4059 15.931 44.3685 15.9136 44.3366 15.8882C44.3048 15.8628 44.2796 15.8301 44.263 15.7929C44.2464 15.7557 44.239 15.715 44.2414 15.6742C44.2439 15.6335 44.256 15.594 44.2769 15.559C44.4807 15.2201 44.7021 14.888 44.9409 14.5628C46.271 12.7417 48.3418 10.1446 51.1534 6.77125C51.8816 5.89774 53.099 5.76919 54.0252 5.66694C59.2591 5.10018 65.1687 5.01253 71.5793 5.00961Z" fill="white"/>
<path d="M55.8077 27.2565C55.8217 27.2755 55.8296 27.2983 55.8305 27.3218C55.8313 27.3454 55.825 27.3687 55.8124 27.3886C55.7998 27.4085 55.7815 27.4241 55.7598 27.4334C55.7382 27.4427 55.7143 27.4452 55.6912 27.4406L44.6846 25.3459C44.5613 25.3221 44.4446 25.272 44.3425 25.1988C44.2405 25.1257 44.1555 25.0314 44.0934 24.9223L41.1604 19.8302C41.1414 19.7966 41.1313 19.7586 41.1311 19.72C41.1309 19.6814 41.1407 19.6434 41.1594 19.6096C41.1781 19.5758 41.2052 19.5475 41.238 19.5273C41.2709 19.5071 41.3083 19.4957 41.3468 19.4942C41.4517 19.4923 41.639 19.5263 41.9089 19.5965C46.6215 20.8157 49.9195 21.7398 51.8029 22.3689C52.1856 22.4962 52.5185 22.7392 52.7554 23.0642L55.8077 27.2565Z" fill="white"/>
<path d="M87.412 27.1806L90.4352 23.0701C90.6689 22.7514 90.9967 22.5135 91.3731 22.3894C93.2294 21.7798 96.4778 20.8858 101.119 19.7075C101.385 19.6393 101.569 19.6062 101.672 19.6081C101.71 19.6087 101.748 19.6194 101.781 19.6393C101.814 19.6592 101.841 19.6874 101.86 19.7212C101.879 19.7551 101.888 19.7932 101.887 19.8318C101.886 19.8705 101.875 19.9082 101.855 19.9412L98.9458 24.9369C98.8841 25.0434 98.8001 25.1354 98.6995 25.2065C98.599 25.2776 98.4843 25.3261 98.3632 25.3488L87.5256 27.3617C87.5027 27.3653 87.4792 27.3621 87.4581 27.3526C87.4369 27.343 87.4191 27.3275 87.4069 27.308C87.3947 27.2886 87.3886 27.266 87.3895 27.2433C87.3904 27.2206 87.3983 27.1988 87.412 27.1806Z" fill="white"/>
<path d="M35.9091 23.2746C35.9302 23.2552 35.9555 23.2411 35.983 23.2331C36.0105 23.2252 36.0395 23.2237 36.0676 23.2288C36.0958 23.2338 36.1224 23.2454 36.1454 23.2624C36.1684 23.2795 36.1872 23.3016 36.2003 23.3272C36.9634 24.8463 37.5537 26.0129 37.9711 26.8271C38.5624 27.9752 41.3789 28.7085 43.0798 29.2343C46.5186 30.2978 49.902 31.3154 53.2301 32.2873C53.2626 32.2967 53.2925 32.3136 53.3175 32.3365C53.3425 32.3593 53.3619 32.3877 53.3743 32.4193C53.3867 32.4509 53.3917 32.4849 53.3889 32.5187C53.3861 32.5526 53.3756 32.5853 53.3582 32.6145C53.2689 32.7664 53.1447 32.8979 52.9854 33.0089C51.368 34.1307 48.8049 35.7667 45.2963 37.9169C45.054 38.065 44.7713 38.1315 44.4895 38.1068C42.2429 37.9179 39.9789 37.5771 37.6974 37.0843C36.6896 36.8681 36.1683 36.2342 36.1333 35.1824C36.0382 32.4869 35.9314 28.5624 35.8129 23.409C35.813 23.3952 35.8158 23.3816 35.8213 23.3691C35.8268 23.3565 35.8349 23.3452 35.845 23.3359L35.9091 23.2746Z" fill="white"/>
<path d="M107.29 23.3827L107.351 23.444C107.362 23.4531 107.37 23.4643 107.375 23.4769C107.381 23.4895 107.383 23.5031 107.383 23.517C107.255 28.6393 107.142 32.5405 107.043 35.2204C107.006 36.2663 106.486 36.8954 105.484 37.1077C103.215 37.5926 100.963 37.9267 98.7302 38.1097C98.4501 38.1337 98.1695 38.0671 97.9293 37.9198C94.4459 35.7755 91.9012 34.1443 90.2954 33.0264C90.1362 32.9154 90.0129 32.7839 89.9255 32.632C89.9086 32.6027 89.8984 32.5699 89.8959 32.5362C89.8933 32.5024 89.8984 32.4686 89.9107 32.4373C89.9231 32.406 89.9424 32.378 89.9672 32.3556C89.992 32.3331 90.0216 32.3167 90.0537 32.3077C93.3643 31.3475 96.7293 30.3425 100.149 29.2928C101.841 28.7728 104.643 28.0512 105.231 26.9118C105.649 26.1035 106.238 24.9447 106.999 23.4352C107.012 23.4093 107.03 23.3867 107.053 23.3692C107.076 23.3518 107.103 23.3401 107.131 23.3349C107.16 23.3298 107.189 23.3315 107.217 23.3398C107.244 23.348 107.269 23.3628 107.29 23.3827Z" fill="white"/>
<path d="M71.6288 30.3387C72.988 30.3387 74.0899 29.2334 74.0899 27.87C74.0899 26.5066 72.988 25.4014 71.6288 25.4014C70.2696 25.4014 69.1677 26.5066 69.1677 27.87C69.1677 29.2334 70.2696 30.3387 71.6288 30.3387Z" fill="white"/>
<path d="M37.1236 46.8507C35.8683 46.6141 34.5343 46.6024 33.2761 46.2343C32.58 46.0269 32.3878 45.6675 32.379 44.9021C32.3402 41.2269 32.279 37.765 32.1955 34.5163C32.1878 34.2417 32.2014 31.6942 32.2363 26.8738C32.2363 26.8459 32.2473 26.8192 32.267 26.7994C32.2867 26.7797 32.3134 26.7686 32.3412 26.7686H32.4373C32.4411 26.7686 32.4448 26.7699 32.4476 26.7721C32.4503 26.7743 32.4518 26.7772 32.4518 26.7803C32.7567 29.6297 33.0615 32.2581 33.3664 34.6653C33.5314 35.98 33.747 37.0551 34.013 37.8906C34.3586 38.9794 35.143 39.6328 36.3663 39.8509C39.9604 40.4917 42.6031 40.8793 44.2943 41.0137C44.9934 41.0701 45.605 40.9533 46.1293 40.6631C49.601 38.7408 52.7786 36.465 56.2359 34.0109C56.4367 33.8684 56.6769 33.7918 56.9232 33.7918H86.3547C86.6046 33.7918 86.8473 33.8705 87.0479 34.0168C90.4886 36.5195 93.8662 38.7739 97.1807 40.78C97.5458 41.002 98.0487 41.0857 98.6895 41.0312C100.254 40.9007 102.543 40.5998 105.554 40.1285C106.743 39.9434 107.468 39.7896 107.73 39.6669C109.099 39.0329 109.591 37.3122 109.769 35.907C110.089 33.3906 110.382 30.4292 110.648 27.0228C110.651 26.9941 110.664 26.9673 110.685 26.9478C110.706 26.9283 110.733 26.9175 110.762 26.9176H110.768C110.797 26.9183 110.825 26.9302 110.846 26.9508C110.867 26.9714 110.88 26.9992 110.881 27.0286C111.002 29.2003 111.047 31.3553 111.015 33.4938C110.955 37.8137 110.918 41.5892 110.905 44.8203C110.901 45.4767 110.745 45.8798 110.436 46.0298C110.222 46.133 109.793 46.2528 109.148 46.3892C108.055 46.619 106.886 46.7553 105.642 46.7981C105.628 46.7989 105.616 46.8045 105.607 46.8137C105.597 46.8229 105.592 46.8351 105.592 46.8478V46.8507C105.592 46.865 105.598 46.8787 105.607 46.889C105.617 46.8993 105.631 46.9055 105.645 46.9062C106.827 46.9705 108.184 46.9472 109.478 47.1224C112.794 47.5685 114.977 47.8908 116.025 48.0894C116.505 48.179 116.93 48.3095 117.301 48.4809C117.359 48.5081 117.407 48.5531 117.439 48.6093C117.47 48.6656 117.483 48.7304 117.475 48.7944C117.468 48.8584 117.441 48.9185 117.397 48.9661C117.354 49.0136 117.297 49.0463 117.234 49.0594C114.426 49.6203 111.417 50.0205 108.208 50.2601C103.006 50.6496 97.6487 50.9106 92.1362 51.043C78.9151 51.3605 66.1551 51.3897 53.8563 51.1307C45.4739 50.9525 37.2488 50.637 28.814 49.5443C27.8024 49.4119 26.9636 49.2064 26.2976 48.9279C26.2083 48.8909 26.1471 48.8529 26.1141 48.814C26.0876 48.7831 26.0692 48.7461 26.0608 48.7063C26.0523 48.6665 26.0539 48.6252 26.0655 48.5862C26.0771 48.5472 26.0983 48.5118 26.1272 48.4832C26.156 48.4546 26.1916 48.4337 26.2306 48.4225C27.3587 48.1011 28.4723 47.8645 29.5713 47.7126C32.4412 47.3114 34.9566 47.0416 37.1178 46.9033C37.1247 46.9041 37.1317 46.9021 37.1372 46.8977C37.1426 46.8933 37.1461 46.8869 37.1469 46.88C37.1477 46.873 37.1457 46.866 37.1413 46.8605C37.1369 46.855 37.1305 46.8515 37.1236 46.8507Z" fill="white"/>
<path d="M3.2213 83.9591H0.0902889C0.0663426 83.9591 0.0433757 83.9496 0.0264431 83.9326C0.00951056 83.9156 0 83.8926 0 83.8685V65.8987C0 65.8746 0.00951056 65.8516 0.0264431 65.8346C0.0433757 65.8176 0.0663426 65.8081 0.0902889 65.8081H3.21256C3.22514 65.808 3.23759 65.8106 3.24913 65.8156C3.26066 65.8206 3.27103 65.828 3.27955 65.8373L15.2065 78.7297C15.2188 78.7433 15.2349 78.7529 15.2527 78.7571C15.2705 78.7613 15.2892 78.76 15.3062 78.7534C15.3233 78.7467 15.3379 78.735 15.3482 78.7198C15.3585 78.7047 15.3639 78.6867 15.3638 78.6684V65.9629C15.3638 65.9389 15.3733 65.9159 15.3902 65.8989C15.4072 65.8819 15.4301 65.8724 15.4541 65.8724H18.5385C18.5624 65.8724 18.5854 65.8819 18.6023 65.8989C18.6193 65.9159 18.6288 65.9389 18.6288 65.9629V83.851C18.6288 83.875 18.6193 83.8981 18.6023 83.9151C18.5854 83.932 18.5624 83.9416 18.5385 83.9416H15.5706C15.558 83.9417 15.5456 83.9391 15.534 83.9341C15.5225 83.929 15.5121 83.9217 15.5036 83.9124L3.46887 70.9031C3.4566 70.8895 3.44049 70.8799 3.42268 70.8757C3.40488 70.8715 3.38621 70.8728 3.36915 70.8794C3.35209 70.8861 3.33746 70.8978 3.32718 70.9129C3.3169 70.9281 3.31146 70.9461 3.31159 70.9645V83.8685C3.31159 83.8926 3.30208 83.9156 3.28515 83.9326C3.26821 83.9496 3.24525 83.9591 3.2213 83.9591Z" fill="white"/>
<path d="M31.814 65.8081H34.7499C34.7921 65.8081 34.8336 65.8195 34.87 65.841C34.9064 65.8626 34.9363 65.8936 34.9566 65.9308L44.4837 83.6202C44.5034 83.6563 44.5134 83.6968 44.5128 83.7379C44.5121 83.779 44.5008 83.8193 44.4799 83.8547C44.4591 83.89 44.4294 83.9194 44.3937 83.9397C44.3581 83.9601 44.3179 83.9708 44.2769 83.9708H41.009C40.9664 83.9705 40.9247 83.9587 40.8883 83.9366C40.8519 83.9145 40.8221 83.8829 40.8022 83.8452L38.8886 80.2927C38.8686 80.255 38.8389 80.2234 38.8025 80.2013C38.7661 80.1792 38.7244 80.1673 38.6818 80.1671H27.7247C27.6825 80.1671 27.641 80.1784 27.6046 80.2C27.5682 80.2216 27.5383 80.2526 27.518 80.2898L25.5986 83.8539C25.5782 83.8911 25.5483 83.9221 25.5119 83.9437C25.4755 83.9652 25.434 83.9766 25.3918 83.9766H22.2841C22.2431 83.9766 22.2028 83.9659 22.1672 83.9456C22.1316 83.9252 22.1019 83.8959 22.081 83.8605C22.0601 83.8251 22.0488 83.7849 22.0482 83.7438C22.0475 83.7027 22.0575 83.6621 22.0773 83.6261L31.6072 65.9308C31.6275 65.8936 31.6575 65.8626 31.6939 65.841C31.7302 65.8195 31.7717 65.8081 31.814 65.8081Z" fill="white"/>
<path d="M110.188 65.7789C110.699 65.7789 111.156 65.7818 111.56 65.7876C111.649 65.7891 111.736 65.8145 111.813 65.8612C111.889 65.9079 111.952 65.9743 111.994 66.0535L121.445 83.6027C121.465 83.6378 121.474 83.6773 121.474 83.7173C121.473 83.7573 121.462 83.7965 121.442 83.8309C121.422 83.8654 121.393 83.894 121.358 83.9139C121.323 83.9338 121.284 83.9444 121.244 83.9445H118.093C118.033 83.9446 117.974 83.9283 117.923 83.8975C117.872 83.8666 117.83 83.8222 117.802 83.7692L115.946 80.3277C115.919 80.2755 115.878 80.2318 115.828 80.2014C115.777 80.171 115.72 80.1551 115.661 80.1554C115.356 80.1554 113.537 80.1573 110.203 80.1612C106.871 80.1651 105.051 80.1671 104.745 80.1671C104.686 80.1673 104.629 80.1835 104.58 80.2138C104.53 80.2442 104.489 80.2876 104.462 80.3394L102.613 83.7867C102.585 83.8398 102.543 83.8841 102.491 83.915C102.44 83.9459 102.381 83.9621 102.321 83.962L99.17 83.9679C99.1301 83.9677 99.0909 83.9572 99.0563 83.9373C99.0217 83.9174 98.9928 83.8888 98.9726 83.8543C98.9523 83.8198 98.9413 83.7807 98.9407 83.7407C98.9401 83.7006 98.9499 83.6611 98.9691 83.6261L108.382 66.0564C108.425 65.9772 108.487 65.9109 108.564 65.8641C108.64 65.8174 108.727 65.792 108.816 65.7906C109.22 65.7828 109.678 65.7789 110.188 65.7789Z" fill="white"/>
<path d="M54.4446 79.834C54.4815 79.834 54.5087 79.8184 54.5262 79.7873C55.1456 78.7589 55.6757 77.824 56.1164 76.9827C58.2077 72.9861 60.163 69.3538 61.9824 66.0856C62.0159 66.0261 62.0643 65.9767 62.1226 65.9423C62.181 65.9079 62.2472 65.8898 62.3144 65.8899H65.3609C65.4097 65.8901 65.4576 65.903 65.5 65.9272C65.5423 65.9515 65.5777 65.9864 65.6026 66.0285C65.6276 66.0705 65.6412 66.1184 65.6422 66.1673C65.6433 66.2162 65.6316 66.2646 65.6085 66.3077L56.2388 83.6494C56.1876 83.7434 56.1142 83.8233 56.0253 83.8819C55.9364 83.9405 55.8347 83.976 55.7291 83.9854C55.7252 83.9874 55.2922 83.9864 54.4301 83.9825C53.5699 83.9786 53.1379 83.9766 53.134 83.9766C53.0278 83.9667 52.9257 83.9302 52.8368 83.8706C52.7478 83.8109 52.6748 83.7299 52.6243 83.6348L43.3798 66.2258C43.3572 66.1826 43.3462 66.1343 43.3477 66.0856C43.3492 66.0368 43.3632 65.9893 43.3884 65.9476C43.4136 65.9059 43.4491 65.8714 43.4915 65.8475C43.5338 65.8235 43.5816 65.811 43.6303 65.811L46.6768 65.8344C46.744 65.8343 46.8102 65.8523 46.8686 65.8867C46.9269 65.9211 46.9753 65.9706 47.0089 66.0301C48.8049 69.3119 50.734 72.9588 52.7961 76.971C53.2311 77.8143 53.7544 78.7531 54.366 79.7873C54.3835 79.8184 54.4097 79.834 54.4446 79.834Z" fill="white"/>
<path d="M72.2066 65.8952L69.5212 65.8905C69.3475 65.8902 69.2064 66.0312 69.2061 66.2054L69.1758 83.6348C69.1755 83.8091 69.3161 83.9506 69.4898 83.9509L72.1752 83.9556C72.3489 83.9559 72.49 83.8149 72.4903 83.6406L72.5206 66.2112C72.5209 66.037 72.3803 65.8955 72.2066 65.8952Z" fill="white"/>
<path d="M81.0305 74.9055C81.0335 77.2456 80.6781 79.1533 82.3441 80.281C82.7286 80.54 83.6946 80.6686 85.2421 80.6666C90.8226 80.651 94.2924 80.6403 95.6516 80.6345C95.6988 80.6345 95.7439 80.6532 95.7773 80.6867C95.8106 80.7201 95.8293 80.7654 95.8293 80.8127V83.7458C95.8293 83.771 95.8243 83.7959 95.8146 83.8192C95.8049 83.8424 95.7907 83.8635 95.7728 83.8812C95.7549 83.8988 95.7337 83.9128 95.7104 83.9221C95.6871 83.9315 95.6622 83.9361 95.6371 83.9357C93.8158 83.9279 90.5673 83.9299 85.8916 83.9416C84.0936 83.9455 82.9693 83.8997 82.5189 83.8043C79.9587 83.2667 78.0714 81.2538 77.8238 78.6333C77.7714 78.0841 77.7442 76.8424 77.7423 74.9084C77.7403 72.9744 77.7656 71.7328 77.818 71.1836C78.0568 68.563 79.9412 66.5443 82.5014 66.0009C82.9499 65.9055 84.0732 65.8577 85.8712 65.8577C90.5469 65.8597 93.7954 65.8548 95.6167 65.8431C95.642 65.8423 95.6673 65.8467 95.6909 65.8559C95.7146 65.8651 95.7361 65.8789 95.7543 65.8966C95.7725 65.9144 95.787 65.9355 95.7969 65.959C95.8068 65.9824 95.8118 66.0076 95.8118 66.033L95.8177 68.9662C95.8177 69.0134 95.7989 69.0588 95.7656 69.0922C95.7323 69.1256 95.6871 69.1444 95.64 69.1444C94.2808 69.1405 90.8109 69.1366 85.2305 69.1327C83.6829 69.1346 82.7169 69.2661 82.3325 69.5271C80.6694 70.6577 81.0276 72.5625 81.0305 74.9055Z" fill="white"/>
<path d="M138.356 77.5757L143.936 83.6056C143.967 83.6388 143.988 83.6804 143.996 83.7253C144.004 83.7703 143.999 83.8166 143.981 83.8586C143.963 83.9005 143.933 83.9362 143.895 83.9614C143.857 83.9865 143.813 84 143.767 84H140.228C140.149 84 140.07 83.9836 139.996 83.952C139.923 83.9203 139.858 83.874 139.803 83.816L134.066 77.6166C134.034 77.5817 133.996 77.5537 133.954 77.5346C133.911 77.5155 133.865 77.5056 133.818 77.5056H128.299C128.248 77.5056 128.2 77.5259 128.165 77.5621C128.129 77.5982 128.109 77.6473 128.109 77.6984V83.775C128.109 83.8277 128.088 83.8783 128.051 83.9155C128.014 83.9528 127.964 83.9737 127.911 83.9737H125.063C124.999 83.9737 124.937 83.9482 124.892 83.9027C124.846 83.8572 124.821 83.7955 124.821 83.7312V66.1061C124.821 66.0759 124.827 66.046 124.839 66.0182C124.851 65.9903 124.868 65.9651 124.889 65.9439C124.911 65.9227 124.937 65.906 124.965 65.8947C124.993 65.8834 125.024 65.8778 125.054 65.8782C125.856 65.886 129.643 65.8772 136.416 65.8519C138.214 65.8441 139.451 65.9804 140.127 66.2609C141.328 66.7614 142.209 67.6204 142.768 68.8376C143.231 69.8397 143.164 71.2887 143.115 72.5041C143.033 74.5666 142.059 76.079 140.191 77.0411C139.649 77.3196 139.061 77.4462 138.426 77.4209C138.408 77.4198 138.39 77.4242 138.375 77.4335C138.359 77.4429 138.347 77.4567 138.34 77.4732C138.332 77.4898 138.33 77.5084 138.333 77.5266C138.336 77.5449 138.344 77.562 138.356 77.5757Z" fill="white"/>
<path d="M71.6434 43.0149C81.9714 43.0149 87.6858 43.012 88.7868 43.0061C89.7149 43.0022 90.6625 43.0324 91.6294 43.0967C91.8674 43.1119 92.0939 43.2065 92.2731 43.3655C93.0362 44.0374 93.7313 44.5331 94.3585 44.8525C94.6731 45.0122 95.3051 45.0843 96.2546 45.0687C96.35 45.067 96.4441 45.0911 96.5271 45.1383C96.6101 45.1856 96.679 45.2544 96.7264 45.3375L97.1051 45.9948C97.1183 46.0183 97.1251 46.0449 97.1249 46.0719C97.1247 46.0989 97.1175 46.1253 97.1039 46.1487C97.0904 46.172 97.071 46.1914 97.0477 46.2048C97.0244 46.2183 96.998 46.2255 96.9711 46.2256C95.7983 46.2334 95.0604 46.2334 94.7575 46.2256C86.5693 46.0191 78.8646 45.9169 71.6434 45.9188C64.4222 45.9188 56.7165 46.023 48.5263 46.2314C48.2254 46.2392 47.4885 46.2392 46.3157 46.2314C46.2888 46.2313 46.2624 46.2242 46.2391 46.2107C46.2158 46.1972 46.1964 46.1778 46.1828 46.1545C46.1693 46.1312 46.1621 46.1047 46.1619 46.0777C46.1617 46.0507 46.1685 46.0241 46.1817 46.0006L46.5603 45.3433C46.6076 45.2607 46.6759 45.1922 46.7584 45.1449C46.8408 45.0977 46.9343 45.0734 47.0293 45.0745C47.9788 45.0901 48.6108 45.0181 48.9254 44.8583C49.5525 44.5389 50.2477 44.0423 51.0108 43.3684C51.19 43.2094 51.4164 43.1148 51.6544 43.0996C52.6214 43.0353 53.569 43.0061 54.4971 43.012C55.598 43.0159 61.3135 43.0169 71.6434 43.0149Z" fill="#1C1D1F"/>
<path d="M128.121 69.4073C128.121 69.3737 128.127 69.3404 128.139 69.3092C128.152 69.278 128.171 69.2496 128.194 69.2257C128.218 69.2018 128.246 69.1828 128.277 69.1699C128.308 69.1569 128.341 69.1503 128.374 69.1503L137.546 69.086C137.844 69.084 138.14 69.1384 138.417 69.2461C138.693 69.3538 138.945 69.5127 139.157 69.7137C139.369 69.9148 139.538 70.154 139.654 70.4177C139.77 70.6814 139.831 70.9645 139.832 71.2508L139.838 72.098C139.842 72.6759 139.606 73.2317 139.183 73.6431C138.76 74.0546 138.183 74.288 137.581 74.292L128.409 74.3563C128.343 74.3563 128.279 74.3299 128.231 74.2829C128.184 74.2358 128.157 74.172 128.156 74.1051L128.121 69.4073Z" fill="#1C1D1F"/>
<path d="M29.315 77.0265L33.1334 69.7433C33.1417 69.7281 33.1539 69.7154 33.1687 69.7065C33.1836 69.6976 33.2006 69.6929 33.2179 69.6929C33.2352 69.6929 33.2521 69.6976 33.267 69.7065C33.2819 69.7154 33.2941 69.7281 33.3023 69.7433L37.1731 77.0002C37.1806 77.0148 37.1842 77.0311 37.1836 77.0475C37.183 77.0639 37.1783 77.0799 37.1698 77.0939C37.1613 77.108 37.1495 77.1196 37.1353 77.1277C37.1211 77.1359 37.105 77.1403 37.0887 77.1405L29.3995 77.1697C29.3827 77.1698 29.3662 77.1654 29.3517 77.1571C29.3371 77.1488 29.3249 77.1368 29.3164 77.1224C29.3078 77.1079 29.3032 77.0915 29.303 77.0746C29.3028 77.0578 29.3069 77.0412 29.315 77.0265Z" fill="#1C1D1F"/>
<path d="M110.168 69.7901C110.269 69.7881 110.34 69.8251 110.38 69.9011C111.58 72.1253 112.853 74.4965 114.199 77.0148C114.206 77.029 114.21 77.0449 114.21 77.061C114.209 77.077 114.205 77.0927 114.197 77.1065C114.188 77.1203 114.177 77.1317 114.163 77.1397C114.149 77.1477 114.133 77.152 114.117 77.1521C112.273 77.1288 110.963 77.1181 110.188 77.12C109.413 77.1219 108.104 77.1395 106.259 77.1726C106.243 77.1724 106.227 77.1682 106.214 77.1602C106.2 77.1522 106.188 77.1407 106.18 77.1269C106.172 77.1131 106.167 77.0975 106.167 77.0814C106.166 77.0654 106.17 77.0495 106.178 77.0353C107.51 74.5111 108.769 72.1331 109.955 69.9011C109.996 69.8271 110.067 69.7901 110.168 69.7901Z" fill="#1C1D1F"/>
</svg>
